<svg xmlns="http://www.w3.org/2000/svg" width="512" height="512" viewBox="0 0 512 512" version="1.1"><path d="M 110.326 94.750 C 110.647 97.362, 116.581 163.850, 123.513 242.500 C 130.445 321.150, 136.296 386.400, 136.516 387.500 C 136.863 389.236, 144.716 391.665, 196.073 405.917 C 228.609 414.946, 255.740 422.327, 256.365 422.320 C 257.622 422.305, 375.263 389.862, 375.898 389.354 C 376.186 389.125, 402.745 96.167, 402.969 90.750 C 402.986 90.338, 337.017 90, 256.371 90 L 109.742 90 110.326 94.750 M 165.301 159.250 C 165.626 163.238, 167.800 187.988, 170.133 214.250 L 174.373 262 237.687 262 L 301 262 300.963 266.250 C 300.874 276.621, 297.210 309.252, 296.054 309.966 C 295.383 310.381, 286.140 313.038, 275.515 315.869 L 256.196 321.018 239.848 316.597 C 230.857 314.166, 221.652 311.687, 219.393 311.088 L 215.287 310 214.606 300.750 C 214.231 295.663, 213.654 289.137, 213.325 286.250 L 212.725 281 194.268 281 L 175.812 281 176.403 285.750 C 176.727 288.363, 177.934 301.075, 179.086 314 C 180.237 326.925, 181.476 337.789, 181.839 338.143 C 182.203 338.497, 199.150 343.371, 219.500 348.975 L 256.500 359.163 294 348.739 L 331.500 338.315 336.528 282.158 L 341.555 226 274.850 226 L 208.144 226 207.552 220.750 C 206.551 211.867, 205.002 193.651, 205.001 190.750 L 205 188 275 188 C 330.317 188, 345.006 187.738, 345.030 186.750 C 345.046 186.063, 345.708 178.975, 346.500 171 C 347.292 163.025, 347.954 155.488, 347.970 154.250 L 348 152 256.355 152 L 164.710 152 165.301 159.250" stroke="none" fill="#fbfafa" fill-rule="evenodd"/><path d="M 232 0.621 C 168.784 8.151, 117.527 32.421, 74.974 74.974 C 35.698 114.250, 11.821 161.425, 2.329 218.500 C -0.296 234.289, -0.296 278.711, 2.329 294.500 C 8.788 333.335, 21.600 366.820, 41.617 397.178 C 81.994 458.413, 145.212 499.087, 217.619 510.417 C 231.879 512.648, 281.121 512.648, 295.381 510.417 C 385.180 496.366, 460.051 437.230, 494.477 353.162 C 506.769 323.145, 511.908 297.425, 512.692 262 C 513.388 230.516, 510.689 209.695, 502.319 182 C 476.218 95.639, 404.938 28.106, 317.517 6.915 C 297.331 2.022, 286.381 0.788, 260.500 0.491 C 246.750 0.333, 233.925 0.391, 232 0.621 M 110.326 94.750 C 110.647 97.362, 116.581 163.850, 123.513 242.500 C 130.445 321.150, 136.296 386.400, 136.516 387.500 C 136.863 389.236, 144.716 391.665, 196.073 405.917 C 228.609 414.946, 255.740 422.327, 256.365 422.320 C 257.622 422.305, 375.263 389.862, 375.898 389.354 C 376.186 389.125, 402.745 96.167, 402.969 90.750 C 402.986 90.338, 337.017 90, 256.371 90 L 109.742 90 110.326 94.750 M 165.301 159.250 C 165.626 163.238, 167.800 187.988, 170.133 214.250 L 174.373 262 237.687 262 L 301 262 300.963 266.250 C 300.874 276.621, 297.210 309.252, 296.054 309.966 C 295.383 310.381, 286.140 313.038, 275.515 315.869 L 256.196 321.018 239.848 316.597 C 230.857 314.166, 221.652 311.687, 219.393 311.088 L 215.287 310 214.606 300.750 C 214.231 295.663, 213.654 289.137, 213.325 286.250 L 212.725 281 194.268 281 L 175.812 281 176.403 285.750 C 176.727 288.363, 177.934 301.075, 179.086 314 C 180.237 326.925, 181.476 337.789, 181.839 338.143 C 182.203 338.497, 199.150 343.371, 219.500 348.975 L 256.500 359.163 294 348.739 L 331.500 338.315 336.528 282.158 L 341.555 226 274.850 226 L 208.144 226 207.552 220.750 C 206.551 211.867, 205.002 193.651, 205.001 190.750 L 205 188 275 188 C 330.317 188, 345.006 187.738, 345.030 186.750 C 345.046 186.063, 345.708 178.975, 346.500 171 C 347.292 163.025, 347.954 155.488, 347.970 154.250 L 348 152 256.355 152 L 164.710 152 165.301 159.250 M 0.426 256.500 C 0.427 268.600, 0.571 273.413, 0.747 267.195 C 0.923 260.977, 0.922 251.077, 0.746 245.195 C 0.569 239.313, 0.425 244.400, 0.426 256.500" stroke="none" fill="#e45c24" fill-rule="evenodd"/></svg>
